<svg xmlns="http://www.w3.org/2000/svg" viewBox="0 0 128 128">
  <path fill="#4a6fa5" d="M64,16C38.5,16,16,38.5,16,64s22.5,48,48,48s48-22.5,48-48S89.5,16,64,16z M64,112c-26.4,0-48-21.6-48-48s21.6-48,48-48s48,21.6,48,48S90.4,112,64,112z"/>
  <path fill="#ffffff" d="M80,48c0,0,0,16,0,24c0,16,0,24-16,24s-16-8-16-24c0-16,0-24,0-24h16C80,40,80,48,80,48z M64,80c8,0,8-16,8-16s0-16-8-16s-8,16-8,16S56,80,64,80z"/>
  <path fill="#ffffff" d="M96,48h8c0,0,0,16,0,32c0,16,0,24-8,24s-8-8-8-24C88,64,88,48,96,48z M96,80c4,0,4-8,4-16s0-16-4-16s-4,8-4,16S92,80,96,80z"/>
  <path fill="#ffffff" d="M40,48h8c0,0,0,16,0,32c0,16,0,24-8,24s-8-8-8-24C32,64,32,48,40,48z M40,80c4,0,4-8,4-16s0-16-4-16s-4,8-4,16S36,80,40,80z"/>
</svg>